<mxfile host="app.diagrams.net" modified="2021-02-06T07:37:35.978Z" agent="5.0 (Windows NT 10.0; Win64; x64) AppleWebKit/537.36 (KHTML, like Gecko) Chrome/88.0.4324.96 Safari/537.36" etag="8vD4I13EPHlQeLE5bmxy" version="14.2.9" type="github">
  <diagram id="2JzIm_9Mfemfv4DpeEBT" name="Page-1">
    <mxGraphModel dx="711" dy="399" grid="1" gridSize="10" guides="1" tooltips="1" connect="1" arrows="1" fold="1" page="1" pageScale="1" pageWidth="850" pageHeight="1100" math="0" shadow="0">
      <root>
        <mxCell id="0" />
        <mxCell id="1" parent="0" />
        <mxCell id="HBsmvhEcvi-Ap4iTGU9q-16" value="&lt;font style=&quot;font-size: 10px&quot;&gt;AWID dataset&lt;/font&gt;" style="rounded=1;whiteSpace=wrap;html=1;" vertex="1" parent="1">
          <mxGeometry x="80" y="40" width="120" height="40" as="geometry" />
        </mxCell>
        <mxCell id="HBsmvhEcvi-Ap4iTGU9q-17" value="" style="endArrow=classic;html=1;" edge="1" parent="1">
          <mxGeometry width="50" height="50" relative="1" as="geometry">
            <mxPoint x="140" y="82" as="sourcePoint" />
            <mxPoint x="140" y="190" as="targetPoint" />
          </mxGeometry>
        </mxCell>
        <mxCell id="HBsmvhEcvi-Ap4iTGU9q-18" value="&lt;font style=&quot;font-size: 10px&quot;&gt;Clean dataset&lt;/font&gt;" style="rounded=1;whiteSpace=wrap;html=1;" vertex="1" parent="1">
          <mxGeometry x="80" y="200" width="120" height="40" as="geometry" />
        </mxCell>
        <mxCell id="HBsmvhEcvi-Ap4iTGU9q-20" value="&lt;font style=&quot;font-size: 9px&quot;&gt;&lt;font style=&quot;font-size: 9px&quot;&gt;Drop cons&lt;/font&gt;tant features&lt;/font&gt;" style="text;html=1;strokeColor=none;fillColor=none;align=center;verticalAlign=middle;whiteSpace=wrap;rounded=0;" vertex="1" parent="1">
          <mxGeometry x="50" y="130" width="70" height="20" as="geometry" />
        </mxCell>
        <mxCell id="HBsmvhEcvi-Ap4iTGU9q-21" value="&lt;span style=&quot;font-size: 10px&quot;&gt;Engineered Dataset&lt;/span&gt;" style="rounded=1;whiteSpace=wrap;html=1;" vertex="1" parent="1">
          <mxGeometry x="280" y="200" width="120" height="40" as="geometry" />
        </mxCell>
        <mxCell id="HBsmvhEcvi-Ap4iTGU9q-23" value="" style="endArrow=classic;html=1;exitX=1;exitY=0;exitDx=0;exitDy=0;entryX=0;entryY=0;entryDx=0;entryDy=0;" edge="1" parent="1" source="HBsmvhEcvi-Ap4iTGU9q-18" target="HBsmvhEcvi-Ap4iTGU9q-21">
          <mxGeometry width="50" height="50" relative="1" as="geometry">
            <mxPoint x="200" y="190" as="sourcePoint" />
            <mxPoint x="280" y="190" as="targetPoint" />
            <Array as="points">
              <mxPoint x="240" y="180" />
            </Array>
          </mxGeometry>
        </mxCell>
        <mxCell id="HBsmvhEcvi-Ap4iTGU9q-24" value="" style="endArrow=classic;html=1;exitX=1;exitY=0.5;exitDx=0;exitDy=0;" edge="1" parent="1" source="HBsmvhEcvi-Ap4iTGU9q-18">
          <mxGeometry width="50" height="50" relative="1" as="geometry">
            <mxPoint x="230" y="270" as="sourcePoint" />
            <mxPoint x="280" y="220" as="targetPoint" />
          </mxGeometry>
        </mxCell>
        <mxCell id="HBsmvhEcvi-Ap4iTGU9q-25" value="&lt;font style=&quot;font-size: 9px&quot;&gt;Select K Best&lt;/font&gt;" style="text;html=1;align=center;verticalAlign=middle;resizable=0;points=[];autosize=1;" vertex="1" parent="1">
          <mxGeometry x="210" y="160" width="70" height="20" as="geometry" />
        </mxCell>
        <mxCell id="HBsmvhEcvi-Ap4iTGU9q-26" value="&lt;font style=&quot;font-size: 9px&quot;&gt;PCA&lt;/font&gt;" style="text;html=1;align=center;verticalAlign=middle;resizable=0;points=[];autosize=1;" vertex="1" parent="1">
          <mxGeometry x="225" y="200" width="30" height="20" as="geometry" />
        </mxCell>
        <mxCell id="HBsmvhEcvi-Ap4iTGU9q-27" value="" style="endArrow=classic;html=1;exitX=1;exitY=1;exitDx=0;exitDy=0;" edge="1" parent="1" source="HBsmvhEcvi-Ap4iTGU9q-18">
          <mxGeometry width="50" height="50" relative="1" as="geometry">
            <mxPoint x="230" y="290" as="sourcePoint" />
            <mxPoint x="280" y="240" as="targetPoint" />
            <Array as="points">
              <mxPoint x="240" y="260" />
            </Array>
          </mxGeometry>
        </mxCell>
        <mxCell id="HBsmvhEcvi-Ap4iTGU9q-28" value="&lt;font style=&quot;font-size: 9px&quot;&gt;NMF&lt;/font&gt;" style="text;html=1;align=center;verticalAlign=middle;resizable=0;points=[];autosize=1;" vertex="1" parent="1">
          <mxGeometry x="220" y="230" width="40" height="20" as="geometry" />
        </mxCell>
        <mxCell id="HBsmvhEcvi-Ap4iTGU9q-30" value="&lt;span style=&quot;font-size: 10px&quot;&gt;Engineered Dataset&lt;/span&gt;" style="rounded=1;whiteSpace=wrap;html=1;" vertex="1" parent="1">
          <mxGeometry x="80" y="360" width="120" height="40" as="geometry" />
        </mxCell>
        <mxCell id="HBsmvhEcvi-Ap4iTGU9q-31" value="" style="endArrow=classic;html=1;" edge="1" parent="1">
          <mxGeometry width="50" height="50" relative="1" as="geometry">
            <mxPoint x="110" y="240" as="sourcePoint" />
            <mxPoint x="110" y="348" as="targetPoint" />
          </mxGeometry>
        </mxCell>
        <mxCell id="HBsmvhEcvi-Ap4iTGU9q-32" value="" style="endArrow=classic;html=1;" edge="1" parent="1">
          <mxGeometry width="50" height="50" relative="1" as="geometry">
            <mxPoint x="170" y="240" as="sourcePoint" />
            <mxPoint x="170" y="348" as="targetPoint" />
          </mxGeometry>
        </mxCell>
        <mxCell id="HBsmvhEcvi-Ap4iTGU9q-35" value="&lt;font style=&quot;font-size: 9px&quot;&gt;SelectKBest&lt;/font&gt;" style="text;html=1;strokeColor=none;fillColor=none;align=center;verticalAlign=middle;whiteSpace=wrap;rounded=0;rotation=0;" vertex="1" parent="1">
          <mxGeometry x="30" y="280" width="80" height="20" as="geometry" />
        </mxCell>
        <mxCell id="HBsmvhEcvi-Ap4iTGU9q-36" value="&lt;font style=&quot;font-size: 9px&quot;&gt;PCA&lt;/font&gt;" style="text;html=1;strokeColor=none;fillColor=none;align=center;verticalAlign=middle;whiteSpace=wrap;rounded=0;" vertex="1" parent="1">
          <mxGeometry x="110" y="280" width="80" height="20" as="geometry" />
        </mxCell>
        <mxCell id="HBsmvhEcvi-Ap4iTGU9q-37" value="" style="endArrow=classic;html=1;" edge="1" parent="1">
          <mxGeometry width="50" height="50" relative="1" as="geometry">
            <mxPoint x="200" y="360" as="sourcePoint" />
            <mxPoint x="320" y="345" as="targetPoint" />
            <Array as="points">
              <mxPoint x="235" y="340" />
            </Array>
          </mxGeometry>
        </mxCell>
        <mxCell id="HBsmvhEcvi-Ap4iTGU9q-38" value="" style="endArrow=classic;html=1;" edge="1" parent="1">
          <mxGeometry width="50" height="50" relative="1" as="geometry">
            <mxPoint x="200" y="379.75" as="sourcePoint" />
            <mxPoint x="320" y="380" as="targetPoint" />
            <Array as="points">
              <mxPoint x="240" y="390" />
            </Array>
          </mxGeometry>
        </mxCell>
        <mxCell id="HBsmvhEcvi-Ap4iTGU9q-40" value="&lt;font style=&quot;font-size: 9px&quot;&gt;SVM&lt;/font&gt;" style="ellipse;whiteSpace=wrap;html=1;" vertex="1" parent="1">
          <mxGeometry x="320" y="330" width="80" height="30" as="geometry" />
        </mxCell>
        <mxCell id="HBsmvhEcvi-Ap4iTGU9q-41" value="&lt;font style=&quot;font-size: 9px&quot;&gt;Forest&lt;/font&gt;" style="ellipse;whiteSpace=wrap;html=1;" vertex="1" parent="1">
          <mxGeometry x="320" y="365" width="80" height="30" as="geometry" />
        </mxCell>
        <mxCell id="HBsmvhEcvi-Ap4iTGU9q-42" value="" style="endArrow=classic;html=1;exitX=1;exitY=1;exitDx=0;exitDy=0;entryX=0.063;entryY=0.25;entryDx=0;entryDy=0;entryPerimeter=0;" edge="1" parent="1" source="HBsmvhEcvi-Ap4iTGU9q-30" target="HBsmvhEcvi-Ap4iTGU9q-43">
          <mxGeometry width="50" height="50" relative="1" as="geometry">
            <mxPoint x="320" y="470" as="sourcePoint" />
            <mxPoint x="240" y="440" as="targetPoint" />
          </mxGeometry>
        </mxCell>
        <mxCell id="HBsmvhEcvi-Ap4iTGU9q-43" value="&lt;font style=&quot;font-size: 10px&quot;&gt;Autoencoder&lt;/font&gt;" style="ellipse;whiteSpace=wrap;html=1;" vertex="1" parent="1">
          <mxGeometry x="240" y="440" width="160" height="40" as="geometry" />
        </mxCell>
        <mxCell id="HBsmvhEcvi-Ap4iTGU9q-44" value="" style="endArrow=classic;html=1;exitX=0.5;exitY=1;exitDx=0;exitDy=0;entryX=0.692;entryY=-0.062;entryDx=0;entryDy=0;entryPerimeter=0;" edge="1" parent="1" source="HBsmvhEcvi-Ap4iTGU9q-43" target="HBsmvhEcvi-Ap4iTGU9q-47">
          <mxGeometry width="50" height="50" relative="1" as="geometry">
            <mxPoint x="320" y="520" as="sourcePoint" />
            <mxPoint x="290" y="550" as="targetPoint" />
          </mxGeometry>
        </mxCell>
        <mxCell id="HBsmvhEcvi-Ap4iTGU9q-45" value="&lt;font style=&quot;font-size: 9px&quot;&gt;26 features extracted&lt;/font&gt;" style="text;html=1;strokeColor=none;fillColor=none;align=center;verticalAlign=middle;whiteSpace=wrap;rounded=0;" vertex="1" parent="1">
          <mxGeometry x="330" y="500" width="100" height="20" as="geometry" />
        </mxCell>
        <mxCell id="HBsmvhEcvi-Ap4iTGU9q-46" value="" style="endArrow=classic;html=1;entryX=0.333;entryY=0;entryDx=0;entryDy=0;entryPerimeter=0;" edge="1" parent="1" target="HBsmvhEcvi-Ap4iTGU9q-47">
          <mxGeometry width="50" height="50" relative="1" as="geometry">
            <mxPoint x="140" y="410" as="sourcePoint" />
            <mxPoint x="230" y="550" as="targetPoint" />
          </mxGeometry>
        </mxCell>
        <mxCell id="HBsmvhEcvi-Ap4iTGU9q-47" value="&lt;span style=&quot;font-size: 10px&quot;&gt;Combined Dataset&lt;/span&gt;" style="rounded=1;whiteSpace=wrap;html=1;" vertex="1" parent="1">
          <mxGeometry x="200" y="560" width="120" height="40" as="geometry" />
        </mxCell>
        <mxCell id="HBsmvhEcvi-Ap4iTGU9q-48" value="" style="endArrow=classic;html=1;" edge="1" parent="1">
          <mxGeometry width="50" height="50" relative="1" as="geometry">
            <mxPoint x="260" y="610" as="sourcePoint" />
            <mxPoint x="260" y="700" as="targetPoint" />
            <Array as="points">
              <mxPoint x="260" y="660" />
            </Array>
          </mxGeometry>
        </mxCell>
      </root>
    </mxGraphModel>
  </diagram>
</mxfile>
